<svg id="Layer_1" data-name="Layer 1" xmlns="http://www.w3.org/2000/svg" viewBox="0 0 4335.97 761.52"><defs><style>.cls-1{fill:#fc00e4;}.cls-2{fill:#d60000;}.cls-3{fill:#00d8b4;}.cls-4{fill:#d3d300;}.cls-5{fill:#7ddd00;}.cls-6{fill:#ff1273;}.cls-7{fill:#2252ff;}.cls-8{fill:#a100ff;}.cls-9{fill:#e07000;}.cls-10{fill:red;}.cls-11{fill:#0fd;}.cls-12{fill:#c247ff;}.cls-13{fill:#fbff00;}.cls-14{fill:#ff5ae9;}.cls-15{fill:#84ff00;}.cls-16{fill:#fe428a;}.cls-17{fill:#f80;}.cls-18{fill:#5a76ff;}</style></defs><path class="cls-1" d="M2233.33,888.09s40.66-.88,90.22,56.76h-96.49Z" transform="translate(-403.63 -885.57)"/><path class="cls-2" d="M552.05,1390.58s4.26,116.18,5.33,130c.87,11.28,3.85,79.73-39.87,97.94-24.07,10-51.4-2-61.58-26.06-5-11.85-8.32-27.81-6.41-48.76a390,390,0,0,0,1.2-58.5c-3.36-56.71-9.67-161.93-12.72-202.32-4.15-55-25.8-232.22-32.52-261.22a66.81,66.81,0,0,1-1.51-9.09c-1.33-14.52-.36-47.06,33.3-54.63,30.58-6.88,60.91,12.58,68.75,42.93,1.25,4.83,3.47,16.46,4.49,23.39.18,1.2.38,2.39.63,3.58,1.19,5.87,5,24.3,9.23,42.34a394.09,394.09,0,0,1,7.09,38.88c1.72,13.14,3.61,28.18,4.16,34.73,0,0,0,54.44,90.45-92.52q15.12-24.58,32-48c8.69-12.11,18-25.7,20.56-31.6,0,0,29.54-65.17,85.27-27.71,0,0,47.93,33-11.37,112.27,0,0-83.85,129.33-175.52,216,0,0,71.35,60,125.2,87.67,22.12,11.38,55.68,29.5,75.58,44.42,28.86,21.65,86.45,36.71,99.8,50.53,0,0,35,35.47,18.47,71.13-11.61,25-41.1,36.71-66.8,26.77-8.14-3.14-16.86-8.45-25.67-17a310.6,310.6,0,0,0-29.91-25.89c-23.42-17.59-63.14-43.11-100.78-62-11.51-5.79-22.92-11.76-34.19-18C607.65,1414.9,560.79,1389.83,552.05,1390.58Z" transform="translate(-403.63 -885.57)"/><path class="cls-3" d="M958.16,1053.76s46.16,332.28,49,342.15c0,0-45.7-6.53-64.75,25.16a48.85,48.85,0,0,0-6.55,27.76c.88,16.6,12.29,43.22,42.12,47.42a54.36,54.36,0,0,0,12.62.19c20.67-1.87,114.23-10.31,138.59-11.55q5.73-.3,11.42-.86c12.53-1.25,45.17-4.76,61-5.29,0,0,34.91-2.48,42.72-36.7,7.48-32.77-16.36-64.64-49.86-67.43a107.2,107.2,0,0,0-26.75,1.4s-41.92,2.13-61.11,5c0,0-9.47-69.88-17.29-128.86,0,0-15.83-130.36-19-152.54,0,0-7.11-48.32-7.11-51.16,0,0,43.09,5.38,62.82,9a98.69,98.69,0,0,0,22.37,1.65c18.42-.85,45.24-7.19,49.83-36.25,0,0,9.23-54.72-46.19-64.67,0,0-116.3-22-217.21-9.24,0,0-70.61,6.27-86.35,49.19-5.93,16.18-2.4,34.56,10,46.51,11.34,10.92,32.3,19.84,70.42,9.47C929,1054.11,951.76,1049.14,958.16,1053.76Z" transform="translate(-403.63 -885.57)"/><path class="cls-4" d="M1798.1,1014.92s46.16,332.28,49,342.15c0,0-45.7-6.53-64.74,25.16a48.85,48.85,0,0,0-6.55,27.76c.87,16.6,12.29,43.22,42.12,47.42a54.34,54.34,0,0,0,12.62.19c20.66-1.87,114.23-10.31,138.59-11.55,3.82-.2,7.61-.49,11.42-.86,12.52-1.25,45.16-4.76,61-5.29,0,0,34.91-2.48,42.72-36.7,7.48-32.77-16.36-64.64-49.85-67.43a107.26,107.26,0,0,0-26.76,1.4s-41.92,2.13-61.11,5c0,0-9.47-69.88-17.29-128.86,0,0-15.83-130.36-19-152.54,0,0-7.1-48.32-7.1-51.16,0,0,43.09,5.38,62.81,9a98.77,98.77,0,0,0,22.37,1.65c18.42-.85,45.24-7.19,49.83-36.25,0,0,9.24-54.72-46.19-64.67,0,0-116.3-22-217.2-9.24,0,0-70.62,6.27-86.36,49.19-5.93,16.18-2.4,34.56,10,46.51,11.34,10.92,32.3,19.84,70.42,9.47C1769,1015.27,1791.7,1010.3,1798.1,1014.92Z" transform="translate(-403.63 -885.57)"/><path class="cls-1" d="M2266,1061.22s-13,212.73-7,281.59c.44,5,.8,10,1,15.09l2.75,31.08a88.89,88.89,0,0,1-2.17,29.53c-3.15,12.53-9.2,25-22.2,32.66a44.32,44.32,0,0,1-38.55,2.75c-13.41-5.24-31.08-11.1-36-41.14a48.55,48.55,0,0,1-.26-12.4c1-10.35.1-66.66.1-80.15,0,0,4.26-302.71,12.79-336.82,0,0,2.3-23,2.35-40.34a62.12,62.12,0,0,1,9.63-33.62c8.66-13.39,24.44-26,52.57-20.18a82.1,82.1,0,0,1,42.15,23.65c16.73,17.37,46,51.12,64.91,91.81,0,0,117.25,264.34,134.3,266.47,0,0,1.07-200.39-5.68-251.91-1-7.69-20.61-109.43,46.19-113.18,0,0,52.86-7.32,49.76,72.75-.4,10.29-.26,20.58.21,30.87,1.47,32.67,4.09,97.53,3.49,132.86-.08,4.93-.09,9.86,0,14.79.75,33.17,3.25,159.56-1.55,201-.61,5.28-1.16,10.56-1.56,15.86-.94,12.47-2.46,33.32-3.05,45.83a71.52,71.52,0,0,1-15.2,41.33c-11,13.81-28.61,24.82-54.38,11.19a72.69,72.69,0,0,1-27.24-25.54c-18.32-28.93-67.52-107-74.65-122.31-.56-1.22-1.14-2.42-1.76-3.6C2386.92,1302,2323,1175,2310.77,1146.49,2310.77,1146.49,2272.4,1064.42,2266,1061.22Z" transform="translate(-403.63 -885.57)"/><path class="cls-5" d="M2647.6,1065.48s-5.63-16.89-10.6-28.36a79.86,79.86,0,0,1-6.84-31.16c-.13-20.74,9.27-50.86,47.87-53.46,0,0,41.46-5.21,58,51.16l16,48s37.31,133.23,46.9,170.54c0,0,11.6,57,24.39,77.28a4.51,4.51,0,0,0,8.16-1.24c3.59-13.17,11-40.9,16.49-64.32,0,0,36.69-147.7,42-174.15a63.37,63.37,0,0,1,8.09-21,55.93,55.93,0,0,1,23.52-21.5c27.24-12.9,59.68.74,70.71,28.79a173.68,173.68,0,0,1,6.78,21.65c1.46,5.86,3.08,11.68,4.79,17.48,7.11,24.09,23.31,78.8,27.44,91.18,0,0,42.52,111.32,61.82,129,0,0,12.13,26.3,41.27-91.88a500.32,500.32,0,0,0,11.71-66.43c2.24-20.87,4.92-46.31,6.59-63.76q1-10.26,1.44-20.56c.73-17.15,3.49-60.35,13.29-90,7.37-22.27,31.62-34.93,55-32.72,12.87,1.23,26.69,7.22,35.42,24.53a59.51,59.51,0,0,1,6,22.79c1,14.49,1.2,46.21-6.57,107,0,0-3.95,36.86-7.28,70a583.79,583.79,0,0,1-28.34,130.56c-8.62,25.22-19.1,51.62-30.62,71.8-.49.85-1,1.7-1.43,2.57-4.34,8-35.91,61.87-99.34,58.9a73.4,73.4,0,0,1-29.84-7.86c-16.59-8.46-43.55-27.17-64.65-65.76-1.18-2.17-2.26-4.38-3.3-6.62-7.06-15.24-36.58-78.46-43.24-83.87,0,0-29.14,100.66-37,121.74,0,0-18.74,47.21-56.33,66.15-21.73,10.94-48,7.19-66.41-8.71-10.77-9.3-23.81-23.83-37.22-46.42a277.7,277.7,0,0,1-21.36-45c-4.58-12.28-11.72-31.58-19.2-52.38q-15.75-43.83-27.13-89C2671.33,1157.4,2649.49,1071,2647.6,1065.48Z" transform="translate(-403.63 -885.57)"/><path class="cls-6" d="M3698.74,1363.06a71.37,71.37,0,0,0-7.94-19.75c-4.48-7.76-12.05-25-16.78-36.11-2.39-5.6-5.07-11.07-8-16.43-7.47-13.83-18.93-39.83-26.25-56.83a219.87,219.87,0,0,1-8.84-23.79c-5.85-19.55-16.61-30.5-16.61-30.5-8.53-7.1-54.3-96.52-54.3-96.52-53.29-101.85-110.56-120-110.56-120-70.46-20.73-102.71,83.25-109.18,107.37-.73,2.75-1.59,5.46-2.46,8.17C3327.77,1110,3301.23,1281,3301.23,1281c-2.05,16.68-17.05,65.09-21.76,78.68-1.14,3.31-2.17,6.64-3,10-9.86,41.28,11.72,56.71,11.72,56.71,27.33,20,49.86,14.18,64.77,4.63a68,68,0,0,0,25.49-30.79c12.52-29.33,22.64-72.76,26.26-89.32a15.85,15.85,0,0,1,8.19-10.77c37.79-19.31,129.68-23.68,129.68-23.68,4.8,7.86,29.79,64,39.12,85.12,1.9,4.3,3.67,8.66,5.41,13,19.33,48.62,56.27,50.84,74,48.2a47.05,47.05,0,0,0,20.89-8.3C3700.55,1401,3702.14,1378,3698.74,1363.06Zm-218.37-187.87a60.65,60.65,0,0,1-12.38,1.69,156.71,156.71,0,0,0-35.27,5.9c-3.09.9-6.12,1.85-8.8,2.79,0,0,11.37-64.66,21.32-78.16,0,0,13.28,5.74,39.14,58.74A6.44,6.44,0,0,1,3480.37,1175.19Z" transform="translate(-403.63 -885.57)"/><path class="cls-7" d="M4137.73,1339.87a60.38,60.38,0,0,0-19.33-15.64,86.29,86.29,0,0,1-8.6-5.5c-3.53-2.51-6.93-5.19-10.27-7.94-8.34-6.87-26.6-19.48-34.79-25.07-2.36-1.6-4.67-3.25-6.94-5-12.37-9.36-45.5-32.64-45.5-32.64,68.92-47.95,90.95-112.28,90.95-112.28,13.33-36.24,9.86-71,.33-100.25-18.13-55.66-61.25-99.53-115.87-120.59-15.48-6-30.6-11.09-43.8-15.25a299.16,299.16,0,0,0-133.77-11c-24.78,3.67-42.44,9.47-52.91,13.71a40.77,40.77,0,0,1-22.65,2.26l-.81-.14c-34.51-6-65,23.76-59.64,58.37a108.33,108.33,0,0,0,4.84,19.16,28.72,28.72,0,0,0,2.68,5.38c5,8.23,9.88,38,12.95,60,1.67,11.93,3.61,23.82,5.74,35.67,5.67,31.55,14.76,117.16,19,158.46q2,19.24,4.9,38.37c5.16,33.91,13.88,102.22,15.6,115.76a17.25,17.25,0,0,0,1.19,4.59c9.65,23,27.3,32.21,42.49,35.66,28.35,6.44,55-11.82,60-40.46a106.4,106.4,0,0,0,1.53-17.53,73,73,0,0,0-1.64-15.52c-4-19.3-8.43-68.83-8.43-68.83,18.8-14.32,95.51,29.26,119.58,43.58q6.87,4.08,13.37,8.7l84.14,60c12.47,8.39,23.55,13.39,33.27,16.09,32.63,9,65.72-15.06,65-48.91C4150.08,1359.08,4144.09,1347.88,4137.73,1339.87Zm-132.24-244.51a67.24,67.24,0,0,1-12.95,29.25c-10.42,13.79-31.57,35.4-69.07,49.84a168.7,168.7,0,0,1-59.9,11c-14.19.07-34.81.83-42.43,4.42,0,0-24.87-172-27-184.76,0,0,6.8-25.9,96.64-11.63a191.07,191.07,0,0,1,63.69,21.82C3982.13,1030.8,4012,1056.86,4005.49,1095.36Z" transform="translate(-403.63 -885.57)"/><path class="cls-8" d="M1710,1091.78c-.55-1.17-1.1-2.34-1.66-3.5-31.35-65.44-86-117.08-153.5-143.61-54.32-21.34-108-27.08-143.76-29.54-18.49-1.27-37-3.48-54.92-8-17.5-4.42-40.88,7.38-40.88,7.38-3.24,2.08-7.67,2.21-10.38,2a37.55,37.55,0,0,0-6.45.09c-41.9,4.72-38.21,38.92-31.59,60.27a503.63,503.63,0,0,1,18.59,88.48c18.26,150.2,21.3,395.57,21.3,395.57,0,34.9,23.66,43.17,41.19,44.52a47.94,47.94,0,0,0,23.63-4.1c1-.48,2.13-.91,3.24-1.31a56.25,56.25,0,0,1,19.24-3.25c90.63.29,165.26-33.09,217.5-66.86C1723.84,1357.3,1766.4,1213.06,1710,1091.78Zm-137,250.5c-43.46,33.19-106,55.76-171.37,56.83,0,0-15.64-227.75-22.39-294.19-.87-8.55-9.59-93.8-9.59-93.8s67.69-1.31,137,22.61c59.67,20.59,106.65,68,124.93,128.42.35,1.17.7,2.35,1,3.54C1651.14,1231.05,1626.94,1301,1572.94,1342.28Z" transform="translate(-403.63 -885.57)"/><path class="cls-9" d="M4672.09,1061.87l-2.07-3.51c-39.35-65.6-105.51-116.06-185.93-140.27-64.69-19.48-128-23-170.17-24-21.79-.5-43.58-2-64.88-5.83-20.74-3.76-47.79,9.33-47.79,9.33-3.72,2.27-8.93,2.59-12.12,2.54a50.59,50.59,0,0,0-7.59.37c-49.09,6.65-43.45,41.49-34.86,63.05a458.16,458.16,0,0,1,25.21,89.72c27.16,152.91,40,403.85,40,403.85,1.32,35.71,29.45,43.15,50.12,43.77a64,64,0,0,0,27.63-5.23c1.19-.53,2.46-1,3.75-1.48a75,75,0,0,1,22.5-4.16c106.58-3.64,193.07-41,253.22-77.88C4698.48,1333,4743.06,1183.51,4672.09,1061.87Zm-151.61,262.29c-49.84,35.86-122.53,61.67-199.36,65.61,0,0-27-232.37-37.46-300.06-1.34-8.71-14.83-95.57-14.83-95.57s79.54-4.28,162,17.18c70.94,18.47,128,64.94,151.76,126,.46,1.18.91,2.38,1.36,3.58C4608.22,1206.94,4582.41,1279.61,4520.48,1324.16Z" transform="translate(-403.63 -885.57)"/><path class="cls-2" d="M443.4,957.36s25.5-10.44,80.16,40.58H446.75Z" transform="translate(-403.63 -885.57)"/><path class="cls-2" d="M735.55,933.26s43.19,9.42,69.82,49.54l-86.22-10.44Z" transform="translate(-403.63 -885.57)"/><path class="cls-2" d="M452.89,1584s12,53.56,80.39,63.08l-4.09-23.16Z" transform="translate(-403.63 -885.57)"/><path class="cls-2" d="M801.94,1538s35.83,45.43,77.71,43.31-67-62-67-62Z" transform="translate(-403.63 -885.57)"/><path class="cls-3" d="M908.82,1079.85s-62.53-20.68-63-65.62,74.56-6.12,74.56-6.12Z" transform="translate(-403.63 -885.57)"/><path class="cls-3" d="M1159.73,959.93s61.89,17.77,71.08,62.59l-71.08-18.5Z" transform="translate(-403.63 -885.57)"/><path class="cls-3" d="M947.27,1478.75s37.23,43.64,64.61,42.5-4.22-34.16-4.22-34.16l-46-29.11Z" transform="translate(-403.63 -885.57)"/><path class="cls-3" d="M1206.74,1377s26.06,7.43,58.51,40.88-69.16,0-69.16,0Z" transform="translate(-403.63 -885.57)"/><path class="cls-8" d="M1385.87,1530.6s-69.23.59-78.7-61.55,86.19,4.93,86.19,4.93Z" transform="translate(-403.63 -885.57)"/><path class="cls-4" d="M1685.73,977.47s-.88,58.07,83,67.33l-21.11-67.33Z" transform="translate(-403.63 -885.57)"/><path class="cls-4" d="M1854,1482.87s-59.16-2.79-75.88-60.65l18-5.43Z" transform="translate(-403.63 -885.57)"/><path class="cls-4" d="M2047.35,1338.39s42.52,12.3,65.33,51.14l-34.72,1.73Z" transform="translate(-403.63 -885.57)"/><path class="cls-1" d="M2165.83,1421.64s7.8,51.58,79.28,60.13l-5.79-48.64Z" transform="translate(-403.63 -885.57)"/><path class="cls-1" d="M2534,906.65s50.63,11.8,67.4,55.61l-31.22,2.48Z" transform="translate(-403.63 -885.57)"/><path class="cls-1" d="M2474.89,1449.33s46.3,62.59,87.66,54.51-56.17-77-56.17-77Z" transform="translate(-403.63 -885.57)"/><path class="cls-5" d="M2680.5,952.37s36.65-4.22,80.37,54.61l-26.23,4.19Z" transform="translate(-403.63 -885.57)"/><path class="cls-5" d="M2938.93,1012.54s55-6.08,87.25,58.49l-60.39,7Z" transform="translate(-403.63 -885.57)"/><path class="cls-5" d="M3212,940s66.33-8,83.79,60.2h-47.91Z" transform="translate(-403.63 -885.57)"/><path class="cls-5" d="M2770.94,1423.73c.8,1,47.57,65.78,97,59.21s-6.7-56.62-6.7-56.62Z" transform="translate(-403.63 -885.57)"/><path class="cls-6" d="M3274,1393.43s1.68,54.84,77.51,71.44V1421Z" transform="translate(-403.63 -885.57)"/><path class="cls-6" d="M3593.46,1388s28.81,50.77,80.06,59.61-42.71-59.61-42.71-59.61Z" transform="translate(-403.63 -885.57)"/><path class="cls-7" d="M3741,1400.26s21,64.14,89.95,62l-10-68.78Z" transform="translate(-403.63 -885.57)"/><path class="cls-9" d="M4212.68,1464.87s9.44,55.46,83.23,61.05-14-88.71-14-88.71Z" transform="translate(-403.63 -885.57)"/><path class="cls-10" d="M585.92,1415.58s4.26,116.18,5.33,130c.86,11.28,3.85,79.73-39.87,97.94-24.07,10-51.4-2-61.58-26.06-5-11.85-8.32-27.81-6.41-48.76a390,390,0,0,0,1.2-58.5c-3.36-56.71-9.67-161.93-12.72-202.32-4.15-55-25.8-232.22-32.52-261.22a65.29,65.29,0,0,1-1.51-9.09c-1.33-14.52-.36-47.06,33.3-54.63,30.58-6.88,60.91,12.58,68.75,42.93,1.25,4.83,3.47,16.46,4.49,23.39.18,1.2.38,2.39.62,3.58,1.2,5.87,5,24.3,9.24,42.34q4.5,19.24,7.09,38.88c1.72,13.14,3.61,28.18,4.16,34.73,0,0,0,54.44,90.45-92.52q15.12-24.58,32-48c8.7-12.11,18-25.7,20.57-31.6,0,0,29.54-65.17,85.27-27.71,0,0,47.93,33-11.37,112.27,0,0-83.85,129.33-175.52,216,0,0,92.55,45.66,146.4,73.37a443.24,443.24,0,0,1,63.13,39.51c28.87,21.64,77.7,55.92,91.05,69.74,0,0,35,35.47,18.47,71.13-11.61,25-41.1,36.71-66.8,26.77-8.14-3.14-16.87-8.45-25.67-17a310.71,310.71,0,0,0-29.92-25.89c-23.41-17.59-63.13-43.11-100.77-62-11.51-5.79-22.92-11.76-34.19-18C641.52,1439.9,594.66,1414.83,585.92,1415.58Z" transform="translate(-403.63 -885.57)"/><path class="cls-11" d="M992,1078.76s46.16,332.28,49,342.15c0,0-45.7-6.53-64.74,25.16a48.85,48.85,0,0,0-6.55,27.76c.87,16.6,12.29,43.22,42.12,47.42a54.36,54.36,0,0,0,12.62.19c20.67-1.87,114.23-10.31,138.59-11.55q5.73-.3,11.42-.86c12.52-1.25,45.17-4.76,61-5.29,0,0,34.91-2.48,42.73-36.7,7.48-32.77-16.37-64.64-49.86-67.43a107.2,107.2,0,0,0-26.75,1.4s-41.93,2.13-61.11,5c0,0-9.48-69.88-17.29-128.86,0,0-15.83-130.36-19-152.54,0,0-7.11-48.32-7.11-51.16,0,0,43.09,5.38,62.82,9a98.69,98.69,0,0,0,22.37,1.65c18.42-.85,45.24-7.19,49.83-36.25,0,0,9.23-54.72-46.19-64.67,0,0-116.3-22-217.21-9.24,0,0-70.61,6.27-86.35,49.19-5.93,16.18-2.4,34.56,10,46.51,11.33,10.92,32.3,19.84,70.42,9.47C962.89,1079.11,985.63,1074.14,992,1078.76Z" transform="translate(-403.63 -885.57)"/><path class="cls-12" d="M1743.82,1116.78c-.55-1.17-1.1-2.34-1.66-3.5-31.35-65.44-86-117.08-153.5-143.61-54.32-21.34-108-27.08-143.76-29.54-18.49-1.27-37-3.48-54.92-8-17.5-4.42-40.88,7.38-40.88,7.38-3.24,2.08-7.67,2.21-10.38,2a37.55,37.55,0,0,0-6.45.09c-41.9,4.72-38.21,38.92-31.59,60.27a503.63,503.63,0,0,1,18.59,88.48c18.26,150.2,21.3,395.57,21.3,395.57,0,34.9,23.66,43.17,41.19,44.52a47.94,47.94,0,0,0,23.63-4.1c1-.48,2.13-.91,3.24-1.31a56.25,56.25,0,0,1,19.24-3.25c90.63.29,165.26-33.09,217.5-66.86C1757.71,1382.3,1800.27,1238.06,1743.82,1116.78Zm-137,250.5c-43.46,33.19-106,55.76-171.37,56.83,0,0-15.64-227.75-22.39-294.19-.87-8.55-9.59-93.8-9.59-93.8s67.69-1.31,137,22.61c59.67,20.59,106.65,68,124.93,128.42.35,1.17.7,2.35,1,3.54C1685,1256.05,1660.81,1326,1606.81,1367.28Z" transform="translate(-403.63 -885.57)"/><path class="cls-13" d="M1832,1039.92s46.16,332.28,49,342.15c0,0-45.7-6.53-64.74,25.16a48.77,48.77,0,0,0-6.55,27.76c.87,16.6,12.28,43.22,42.11,47.42a54.43,54.43,0,0,0,12.63.19c20.66-1.87,114.22-10.31,138.59-11.55,3.82-.2,7.61-.49,11.41-.86,12.53-1.25,45.17-4.76,61-5.29,0,0,34.91-2.48,42.72-36.7,7.48-32.77-16.36-64.64-49.85-67.43a107.26,107.26,0,0,0-26.76,1.4s-41.92,2.13-61.11,5c0,0-9.47-69.88-17.29-128.86,0,0-15.83-130.36-19-152.54,0,0-7.1-48.32-7.1-51.16,0,0,43.09,5.38,62.81,9a98.77,98.77,0,0,0,22.37,1.65c18.42-.85,45.24-7.19,49.83-36.25,0,0,9.24-54.72-46.19-64.67,0,0-116.3-22-217.21-9.24,0,0-70.61,6.27-86.35,49.19-5.93,16.18-2.4,34.56,10,46.51,11.34,10.92,32.3,19.84,70.42,9.47C1802.83,1040.27,1825.57,1035.3,1832,1039.92Z" transform="translate(-403.63 -885.57)"/><path class="cls-14" d="M2299.88,1086.22s-13,212.73-7,281.59c.44,5,.79,10,1,15.09l2.75,31.08a88.89,88.89,0,0,1-2.17,29.53c-3.15,12.53-9.2,25-22.2,32.66a44.32,44.32,0,0,1-38.55,2.75c-13.41-5.24-31.09-11.1-36-41.14a48.55,48.55,0,0,1-.26-12.4c1-10.35.1-66.66.1-80.15,0,0,4.26-302.71,12.79-336.82,0,0,2.3-23,2.35-40.34a62,62,0,0,1,9.63-33.62c8.66-13.39,24.44-26,52.57-20.18A82.07,82.07,0,0,1,2317,937.92c16.74,17.37,46,51.12,64.92,91.81,0,0,117.25,264.34,134.3,266.47,0,0,1.07-200.39-5.68-251.91-1-7.69-20.61-109.43,46.19-113.18,0,0,52.86-7.32,49.76,72.75-.4,10.29-.26,20.58.21,30.87,1.47,32.67,4.09,97.53,3.49,132.86q-.13,7.4,0,14.79c.76,33.17,3.26,159.56-1.54,201-.61,5.28-1.16,10.56-1.56,15.86-.94,12.47-2.46,33.32-3,45.83a71.59,71.59,0,0,1-15.2,41.33c-11,13.81-28.61,24.82-54.38,11.19a72.62,72.62,0,0,1-27.24-25.54c-18.32-28.93-67.52-107-74.65-122.31-.56-1.22-1.14-2.42-1.76-3.6-10.07-19.16-74-146.18-86.22-174.67C2344.64,1171.49,2306.27,1089.42,2299.88,1086.22Z" transform="translate(-403.63 -885.57)"/><path class="cls-15" d="M2681.47,1090.48s-5.63-16.89-10.6-28.36A79.86,79.86,0,0,1,2664,1031c-.13-20.74,9.26-50.86,47.87-53.46,0,0,41.45-5.21,58,51.16l16,48s37.31,133.23,46.9,170.54c0,0,11.6,57,24.39,77.28a4.51,4.51,0,0,0,8.16-1.24c3.59-13.17,11-40.9,16.48-64.32,0,0,36.7-147.7,42-174.15a63.61,63.61,0,0,1,8.1-21,55.93,55.93,0,0,1,23.52-21.5c27.24-12.9,59.68.74,70.71,28.79a173.68,173.68,0,0,1,6.78,21.65c1.46,5.86,3.08,11.68,4.79,17.48,7.11,24.09,23.31,78.8,27.44,91.18,0,0,42.51,111.32,61.82,129,0,0,12.13,26.3,41.27-91.88A502,502,0,0,0,3180,1172c2.24-20.87,4.92-46.31,6.59-63.76.65-6.84,1.14-13.69,1.43-20.56.74-17.15,3.5-60.35,13.3-90,7.37-22.27,31.62-34.93,55-32.72,12.87,1.23,26.69,7.22,35.42,24.53a59.51,59.51,0,0,1,6,22.79c1,14.49,1.2,46.21-6.57,107,0,0-3.95,36.86-7.28,70a583.79,583.79,0,0,1-28.34,130.56c-8.62,25.22-19.1,51.62-30.62,71.8-.49.85-1,1.7-1.43,2.57-4.34,8-35.91,61.87-99.34,58.9a73.32,73.32,0,0,1-29.84-7.86c-16.59-8.46-43.55-27.17-64.65-65.76-1.18-2.17-2.26-4.38-3.3-6.62-7.06-15.24-36.59-78.46-43.25-83.87,0,0-29.13,100.66-37,121.74,0,0-18.74,47.21-56.34,66.15-21.72,10.94-48,7.19-66.41-8.71-10.76-9.3-23.8-23.83-37.22-46.42a279.38,279.38,0,0,1-21.36-45c-4.58-12.28-11.71-31.58-19.19-52.38q-15.75-43.83-27.13-89C2705.19,1182.4,2683.36,1096,2681.47,1090.48Z" transform="translate(-403.63 -885.57)"/><path class="cls-16" d="M3732.61,1388.06a71.37,71.37,0,0,0-7.94-19.75c-4.48-7.76-12.05-25-16.78-36.11-2.39-5.6-5.07-11.07-8-16.43-7.47-13.83-18.93-39.83-26.25-56.83a219.87,219.87,0,0,1-8.84-23.79c-5.85-19.55-16.61-30.5-16.61-30.5-8.53-7.1-54.3-96.52-54.3-96.52-53.29-101.85-110.56-120-110.56-120-70.46-20.73-102.71,83.25-109.18,107.37-.73,2.75-1.59,5.46-2.46,8.17C3361.64,1135,3335.1,1306,3335.1,1306c-2,16.68-17,65.09-21.76,78.68-1.14,3.31-2.17,6.64-3,10-9.86,41.28,11.72,56.71,11.72,56.71,27.33,20,49.86,14.18,64.77,4.63a68,68,0,0,0,25.49-30.79c12.52-29.33,22.64-72.76,26.26-89.32a15.85,15.85,0,0,1,8.19-10.77c37.79-19.31,129.68-23.68,129.68-23.68,4.8,7.86,29.79,64,39.12,85.12,1.9,4.3,3.67,8.66,5.41,13,19.33,48.62,56.27,50.84,74,48.2a47.05,47.05,0,0,0,20.89-8.3C3734.42,1426,3736,1403,3732.61,1388.06Zm-218.37-187.87a60.65,60.65,0,0,1-12.38,1.69,156.71,156.71,0,0,0-35.27,5.9c-3.09.9-6.12,1.85-8.8,2.79,0,0,11.37-64.66,21.32-78.16,0,0,13.28,5.74,39.14,58.74A6.44,6.44,0,0,1,3514.24,1200.19Z" transform="translate(-403.63 -885.57)"/><path class="cls-17" d="M4706,1086.87q-1-1.77-2.07-3.51c-39.35-65.6-105.51-116.06-185.93-140.27-64.69-19.48-128-23-170.17-24-21.79-.5-43.58-2-64.88-5.83-20.74-3.76-47.79,9.33-47.79,9.33-3.72,2.27-8.93,2.59-12.12,2.54a50.59,50.59,0,0,0-7.59.37c-49.09,6.65-43.45,41.49-34.86,63.05a458.16,458.16,0,0,1,25.21,89.72c27.16,152.91,40,403.85,40,403.85,1.32,35.71,29.45,43.15,50.12,43.77a64,64,0,0,0,27.63-5.23c1.19-.53,2.46-1,3.75-1.48a75,75,0,0,1,22.5-4.16c106.58-3.64,193.07-41,253.22-77.88C4732.35,1358,4776.93,1208.51,4706,1086.87Zm-151.61,262.29c-49.84,35.86-122.53,61.67-199.36,65.61,0,0-27-232.37-37.46-300.06-1.34-8.71-14.83-95.57-14.83-95.57s79.54-4.28,162,17.18c70.94,18.47,128,64.94,151.76,126,.46,1.18.91,2.38,1.36,3.58C4642.09,1231.94,4616.28,1304.61,4554.35,1349.16Z" transform="translate(-403.63 -885.57)"/><path class="cls-18" d="M4171.6,1364.87a60.38,60.38,0,0,0-19.33-15.64,86.29,86.29,0,0,1-8.6-5.5c-3.53-2.51-6.93-5.19-10.27-7.94-8.34-6.87-26.6-19.48-34.79-25.07-2.36-1.6-4.67-3.25-6.94-5-12.37-9.36-45.5-32.64-45.5-32.64,68.92-47.95,90.95-112.28,90.95-112.28,13.33-36.24,9.86-71,.33-100.25-18.13-55.66-61.25-99.53-115.87-120.59-15.48-6-30.6-11.09-43.8-15.25a299.16,299.16,0,0,0-133.77-11c-24.78,3.67-42.44,9.47-52.91,13.71a40.77,40.77,0,0,1-22.65,2.26l-.81-.14c-34.51-6-65,23.76-59.64,58.37a108.33,108.33,0,0,0,4.84,19.16,28.72,28.72,0,0,0,2.68,5.38c5,8.23,9.88,38,12.95,60,1.67,11.93,3.61,23.82,5.74,35.67,5.67,31.55,14.76,117.16,19,158.46q2,19.24,4.9,38.37c5.16,33.91,13.88,102.22,15.6,115.76a17.25,17.25,0,0,0,1.19,4.59c9.65,23,27.3,32.21,42.49,35.66,28.35,6.44,55-11.82,60-40.46a106.4,106.4,0,0,0,1.53-17.53,73,73,0,0,0-1.64-15.52c-4-19.3-8.43-68.83-8.43-68.83,18.8-14.32,95.51,29.26,119.58,43.58q6.87,4.08,13.37,8.7l84.14,60c12.47,8.39,23.55,13.39,33.27,16.09,32.63,9,65.72-15.06,65-48.91C4184,1384.08,4178,1372.88,4171.6,1364.87Zm-132.24-244.51a67.24,67.24,0,0,1-13,29.25c-10.42,13.79-31.57,35.4-69.07,49.84a168.7,168.7,0,0,1-59.9,11c-14.19.07-34.81.83-42.43,4.42,0,0-24.87-172-27-184.76,0,0,6.8-25.9,96.64-11.63a191.07,191.07,0,0,1,63.69,21.82C4016,1055.8,4045.83,1081.86,4039.36,1120.36Z" transform="translate(-403.63 -885.57)"/></svg>