<?xml version="1.0" encoding="utf-8"?>
<!-- Generator: Adobe Illustrator 25.0.0, SVG Export Plug-In . SVG Version: 6.00 Build 0)  -->
<svg version="1.1" id="Layer_1" xmlns="http://www.w3.org/2000/svg" xmlns:xlink="http://www.w3.org/1999/xlink" x="0px" y="0px"
	 viewBox="0 0 738.1 664.5" style="enable-background:new 0 0 738.1 664.5;" xml:space="preserve">
<style type="text/css">
	.st0{fill:#FF0000;stroke:#000000;stroke-width:1.2244;stroke-miterlimit:10;}
	.st1{fill:#00FFDD;stroke:#000000;stroke-width:1.2244;stroke-miterlimit:10;}
	.st2{fill:#C247FF;stroke:#000000;stroke-width:1.2244;stroke-miterlimit:10;}
	.st3{fill:#FF5AE9;stroke:#000000;stroke-width:1.2244;stroke-miterlimit:10;}
	.st4{fill:#84FF00;stroke:#000000;stroke-width:1.2244;stroke-miterlimit:10;}
	.st5{fill:#5A76FF;stroke:#000000;stroke-width:1.2244;stroke-miterlimit:10;}
	.st6{fill:#FF8800;stroke:#000000;stroke-width:1.2244;stroke-miterlimit:10;}
	.st7{fill:#FE428A;stroke:#000000;stroke-width:1.2244;stroke-miterlimit:10;}
	.st8{fill:#FBFF00;stroke:#000000;stroke-width:1.2244;stroke-miterlimit:10;}
</style>
<path class="st0" d="M318.3,218.6c1.2,6.7,5.3,30.7,6.1,42.1c0.9,1.1,1.1,2.6,1.3,4c0.2,1.6,0.5,3.1,0.7,4.7
	c0.2,1.8,0.4,3.6,0.4,5.4c0,0.9,0.1,1.8,0.1,2.7c0,0.9,0.1,1.7,0,2.6c0,0.1,0,0.2,0,0.3c0.3,3.3,3.1,40.3,3.1,45.7
	c0,2.5,0.3,5,1,7.3c2.4,8.5,14.3,8.7,17.1,0.4c0.6-1.7,1.1-3.5,1.4-5.4c0.6-3.5,0.7-7,0.3-10.5c-0.9-8-3.2-28.6-3-37.5
	c-0.1-0.8,0.6-1.5,1.4-1.6c0.2,0,0.4,0,0.6,0.1c8,2.5,34.3,12.2,66.3,38.7c0,0,16.4,14,22.1,2c0,0,7.3-11.2-19.8-26
	c-0.7-0.4-1.4-0.8-2.1-1.2c-6.9-4.2-39.8-25.7-50.3-27.6c0,0,36.6-30.3,41-57.8c-0.1-1.1-0.3-2.2-0.7-3.2c-1.7-5.5-8.1-8.3-13.1-5.4
	c-1.8,1-3.5,2.9-4.6,5.9c-0.8,2.3-1.8,4.5-2.9,6.5c-4.9,8.4-17.8,28.3-39.5,46.9c-0.5,0.4-1.3,0.4-1.7-0.1c-0.1-0.2-0.2-0.4-0.3-0.6
	c-1.5-9.4-7.4-47-9.1-49.9c0,0-3.3-8.3-12.7-5.6c0,0-6.4,3.3-3.9,14.2C317.9,216.6,318.1,217.6,318.3,218.6z"/>
<path class="st1" d="M230.7,276.4c2.4,1.2,4.7,2.6,6.9,4.1c2,1.3,4,2.7,6,4.1c0.8,0.5,1.5,1,2.3,1.6c2.1-2,4.6-3.5,7.3-4.4
	c0,0,8.1-2.8,53.8-1.5h19.6v-0.3c0-0.8,0-1.7-0.1-2.6c0-0.9-0.1-1.8-0.1-2.7c-0.1-1.8-0.2-3.6-0.5-5.4c-0.1-0.9-0.3-1.8-0.4-2.7
	c-0.1-0.6-0.2-1.3-0.3-1.9c-0.2-1.2-0.4-2.5-1.2-3.5h-48.3c0,0-35.3-3.1-47,14.5C229.5,275.8,230.1,276.1,230.7,276.4z"/>
<path class="st2" d="M219.4,365c1.3-0.4,2.5-0.9,3.7-1.6c2.6-1.3,5.1-2.9,7.6-4.4c1.1-0.7,2.2-1.3,3.3-1.9c1.3-0.6,2.6-1.2,4-1.6
	l0.3-0.1c-0.8-14.2-1.3-27.3-1-34.4c0.1-2.7,0.1-5.5,0.1-8.2c-0.2-6.4,0.6-18.8,8.3-26.3c-0.9-0.6-1.8-1.2-2.7-1.8
	c-2-1.4-4.1-2.8-6.1-4.2c-2.2-1.5-4.5-2.8-6.9-4c-0.4-0.2-0.9-0.4-1.4-0.6c-1.5,1.7-10.5,13.4-9.4,45.6
	C219.2,321.5,219.1,342.3,219.4,365z"/>
<path class="st3" d="M333.8,464.6c1.1-4,1.8-8.1,2.7-12.2c0.5-2.3,1.1-4.5,1.9-6.7h-24.5c0,0-26.7,1.3-52.8-5.1
	c-2.8-0.7-5.4-2-7.6-3.8c-0.6-0.5-1.3-1.1-2-1.6c-0.9,3.8-1.9,7.5-3,11.2c-0.9,3-1.8,6-2.8,9c7.3,3.3,21.3,8,43.8,9.6
	c0,0,17.6,0.9,43.7,1.5C333.4,465.9,333.6,465.2,333.8,464.6z"/>
<path class="st4" d="M453.3,464.7c-0.6-1.2-1.2-2.3-1.8-3.5c-0.6-1-1.2-2-1.8-3.1c-1.2-2.1-2.2-4.3-3.2-6.4
	c-1.1-2.4-2.3-4.8-3.5-7.2c-8.1,0.5-18,0.9-30,1.2h-74.2c-0.2,0.6-0.4,1.2-0.6,1.8c-1.2,3.9-1.9,8-2.8,12c-0.5,2.4-1.1,4.7-1.7,7.1
	c23.7,0.6,54.5,1,85.8,0.4c0,0,15.8,0.1,34.1-1.8L453.3,464.7z"/>
<path class="st5" d="M513.5,300.4c-3.2-0.6-6.4-1.2-9.6-1.7c-3.4-0.6-6.8-0.8-10.3-0.7c0.1,0.5,0.2,1.1,0.3,1.6
	c0,0,7.5,34.1,5.3,74.7l-0.2,23.4c0.4-0.3,0.9-0.7,1.3-1c4.1-3.1,8.6-5.7,12.7-8.8c1.9-1.4,3.7-3,5.5-4.6l-0.9-49.4
	C517.7,333.9,517.4,317.4,513.5,300.4z"/>
<path class="st6" d="M497.9,297.6c4.4,0.3,8.8,1.1,13.2,1.9l2.3,0.4c-2.6-11.2-6.8-22.5-13.6-29.5c-0.3-0.3-0.6-0.7-1-1
	c-2.5-2.7-16-19.3-84-14.6c0,0-7-0.2-11.6,3c-5.2,3.6-4.5,11.4,1.1,14.2c2.1,1.1,4.6,1.7,9.2,2.2c4.1,0.4,8.3,0.5,12.4,0.4l27.8-0.9
	c0.9,0,1.8-0.1,2.6-0.1c5.3-0.4,31.6-0.8,37.1,24C495,297.5,496.5,297.5,497.9,297.6z"/>
<path class="st7" d="M518.6,383.8c-1,0.9-2,1.8-3.1,2.7c-0.9,0.8-1.9,1.5-2.9,2.3c-2,1.5-4.2,2.9-6.3,4.3c-2.4,1.6-4.9,3.3-7.2,5.2
	c0,2.1,0,4.3,0.1,6.4c0.2,7.4,0.5,29.2-21.8,36.3c0,0-6,1.9-34,3.6c0.2,0.4,0.4,0.9,0.7,1.3c2.2,4.3,4,8.8,6.4,12.9
	c0.3,0.5,0.6,1,0.9,1.5c0.3,0.5,0.6,1.1,0.9,1.7c0.6,1.1,1.1,2.1,1.6,3.2c12.5-1.3,26.1-3.5,36.5-7.2c8.4-3,15.4-8.8,19.9-16.5
	c4.6-8,9.5-20.6,8.6-37.4L518.6,383.8z"/>
<path class="st8" d="M245.7,453.9c1.8-5.7,3.6-11.5,5-17.3c0.1-0.6,0.3-1.1,0.4-1.7c-4-3.6-8-8.7-8.8-19.2c0,0-2.6-32-4.1-59.9
	c-0.6,0.2-1.2,0.4-1.8,0.7c-1.1,0.4-2.2,0.9-3.2,1.5c-1.2,0.7-2.3,1.4-3.5,2.1c-2.5,1.6-5.1,3-7.8,4.3c-0.9,0.4-1.8,0.8-2.7,1
	c0.2,14.8,0.6,30.2,1.2,41.1c0,0,1.8,34.1,18.1,45l0.8,0.5c1.9,1.2,3.8,2.3,5.9,3.2C245.4,454.8,245.6,454.3,245.7,453.9z"/>
<path class="st0" d="M366.8,414.5c-3,5-9.2,7.1-14.6,4.9c-2.8-1.2-6.3-3.2-7.1-7.9c-1.4-8.7-0.8-21,8.6-24.5
	c5-1.9,11.3,0.2,13.9,4.9c2,3.5,2.8,9.7,1,18.9C368.1,412,367.5,413.3,366.8,414.5z"/>
<path class="st0" d="M402.4,418.8c-3.1,2.2-7.2,2.7-10.7,1.3c-3.6-1.3-8-5.4-8.5-12.9c-0.8-12.7,1.8-24,14-22.4
	c13.1,1.7,11.9,20.9,10.3,26.8C406.6,414.5,404.9,417,402.4,418.8z"/>
</svg>
